<?xml version="1.0" standalone="no"?>
<!DOCTYPE svg PUBLIC "-//W3C//DTD SVG 20010904//EN"
 "http://www.w3.org/TR/2001/REC-SVG-20010904/DTD/svg10.dtd">
<svg version="1.0" xmlns="http://www.w3.org/2000/svg"
 width="500.000000pt" height="500.000000pt" viewBox="0 0 500.000000 500.000000"
 preserveAspectRatio="xMidYMid meet">

<g transform="translate(0.000000,500.000000) scale(0.100000,-0.100000)"
fill="#000000" stroke="none">
<path d="M3940 4795 c-73 -21 -135 -59 -193 -118 -47 -49 -49 -49 -96 -43 -26
3 -163 11 -305 16 -515 21 -1349 -27 -2111 -121 -137 -17 -293 -35 -345 -39
-52 -5 -126 -13 -163 -20 -184 -29 -327 -112 -385 -224 -23 -44 -26 -63 -26
-136 1 -103 25 -181 113 -362 124 -254 280 -387 776 -663 245 -136 832 -523
1332 -877 l92 -65 -254 -311 c-310 -378 -380 -442 -484 -442 -49 0 -95 41
-130 116 -26 53 -75 238 -86 321 l-7 52 43 21 c56 29 132 106 162 166 125 251
-21 544 -297 595 -213 39 -428 -118 -467 -339 -30 -167 64 -349 221 -430 l54
-28 13 -90 c45 -319 159 -532 328 -615 43 -21 63 -24 150 -23 86 1 110 5 170
29 167 69 347 223 530 455 249 314 592 716 1249 1460 226 256 238 270 229 270
-4 0 -82 -9 -172 -20 -155 -18 -166 -21 -191 -47 -15 -15 -166 -174 -335 -353
-170 -179 -353 -371 -408 -427 l-99 -103 -842 534 c-462 293 -852 539 -866
546 -41 22 -169 129 -255 215 -93 91 -184 209 -214 275 -39 85 -21 154 44 174
30 9 2259 196 2455 206 91 5 233 9 317 9 l151 1 7 -39 c11 -64 61 -158 112
-209 199 -199 536 -139 656 115 43 92 50 218 17 305 -61 164 -195 264 -365
274 -44 2 -90 -2 -125 -11z m197 -258 c41 -28 73 -85 73 -130 0 -106 -95 -190
-190 -168 -100 23 -153 101 -135 199 8 42 78 118 117 125 41 7 102 -5 135 -26z
m-2543 -2140 c57 -32 91 -100 81 -164 -10 -66 -71 -128 -136 -138 -101 -15
-189 60 -189 160 0 128 133 206 244 142z"/>
<path d="M1894 4019 c-34 -11 -83 -37 -110 -58 -262 -198 -197 -603 114 -712
89 -32 218 -24 305 19 81 40 165 128 197 206 20 48 28 56 54 61 17 2 346 29
731 59 615 48 714 54 811 46 268 -22 422 -125 470 -310 28 -110 4 -255 -60
-364 -108 -184 -738 -951 -1200 -1461 -150 -165 -451 -487 -503 -538 l-49 -47
-72 37 c-64 32 -83 37 -160 41 -140 7 -244 -36 -334 -137 -61 -69 -90 -141
-96 -237 -10 -176 75 -322 233 -400 55 -27 69 -29 170 -29 103 0 114 2 175 32
82 40 152 110 193 192 28 57 32 77 35 168 l4 102 52 40 c78 60 314 305 386
401 75 99 172 212 480 560 303 342 399 454 513 597 301 378 459 647 519 888
29 118 31 284 4 365 -61 181 -219 303 -456 350 l-105 21 -855 -60 c-470 -34
-873 -62 -894 -63 -28 -2 -41 2 -44 12 -9 27 -59 95 -99 133 -21 21 -67 52
-102 70 -86 42 -213 49 -307 16z m217 -242 c52 -35 79 -82 79 -139 0 -149
-161 -221 -271 -121 -88 79 -72 199 36 264 43 27 113 25 156 -4z m359 -3037
c144 -74 104 -293 -58 -307 -36 -4 -57 1 -92 19 -127 68 -116 238 20 300 30
13 91 8 130 -12z"/>
</g>
</svg>
